0
SECTION
2
HEADER
9
$INSUNITS
70
4
0
ENDSEC
0
SECTION
2
TABLES
0
TABLE
2
LTYPE
0
LTYPE
72
65
70
64
2
CONTINUOUS
3
______
73
0
40
0
0
ENDTAB
0
TABLE
2
LAYER
0
ENDTAB
0
ENDSEC
0
SECTION
2
ENTITIES
0
LINE
8
0
10
59.110277
20
-127.1307404
11
72.0397997
21
-78.8771052
0
LINE
8
0
10
73.2920858
20
-77.5137353
11
92.6092621
21
-70.5348767
0
LINE
8
0
10
93.2964119
20
-70.415899
11
111.2989128
21
-70.4841674
0
LINE
8
0
10
111.8089667
20
-70.5523013
11
130.6262684
21
-75.5943821
0
LINE
8
0
10
131.1020551
20
-75.7904034
11
146.9464355
21
-84.8582231
0
LINE
8
0
10
147.1264779
20
-84.9495241
11
162.1225844
21
-91.625325
0
LINE
8
0
10
163.2410539
20
-93.9700945
11
160.9154867
21
-102.6492296
0
LINE
8
0
10
162.8473384
20
-105.1668676
11
185.282945
21
-105.1668676
0
LINE
8
0
10
187.2147967
20
-102.6492296
11
184.8892295
21
-93.9700945
0
LINE
8
0
10
186.007699
20
-91.625325
11
201.0038055
21
-84.9495241
0
LINE
8
0
10
201.1838479
20
-84.8582231
11
217.0282283
21
-75.7904034
0
LINE
8
0
10
217.504015
20
-75.5943821
11
236.3213167
21
-70.5523013
0
LINE
8
0
10
236.8313706
20
-70.4841674
11
254.8338715
21
-70.415899
0
LINE
8
0
10
255.5210213
20
-70.5348767
11
274.8381976
21
-77.5137353
0
LINE
8
0
10
276.0904837
20
-78.8771052
11
289.0200064
21
-127.1307404
0
LINE
8
0
10
287.6057927
20
-129.5802301
11
270.4142897
21
-134.1866795
0
LINE
8
0
10
270.0383681
20
-134.3292433
11
228.5127087
21
-155.0669085
0
LINE
8
0
10
228.4643856
20
-155.0902361
11
210.6276417
21
-163.4076464
0
LINE
8
0
10
210.1439552
20
-163.725617
11
198.3923521
21
-174.1742368
0
LINE
8
0
10
195.5313402
20
-173.9651671
11
185.2407825
21
-161.7013581
0
LINE
8
0
10
183.7086937
20
-160.9869333
11
164.4215897
21
-160.9869333
0
LINE
8
0
10
162.8895009
20
-161.7013581
11
152.5989432
21
-173.9651671
0
LINE
8
0
10
149.7379313
20
-174.1742368
11
137.9863282
21
-163.725617
0
LINE
8
0
10
137.5026417
20
-163.4076464
11
119.6658978
21
-155.0902361
0
LINE
8
0
10
119.6175747
20
-155.0669085
11
78.0919153
21
-134.3292433
0
LINE
8
0
10
77.7159937
20
-134.1866795
11
60.5244907
21
-129.5802301
0
ARC
8
0
10
73.9716514
20
-79.3947432
40
2
50
109.8636423
51
165.0000021
0
ARC
8
0
10
93.2888277
20
-72.4158846
40
2
50
89.7827282
51
109.8636423
0
ARC
8
0
10
111.2913286
20
-72.484153
40
2
50
75.0000021
51
89.7827282
0
ARC
8
0
10
130.1086304
20
-77.5262339
40
2
50
60.2172736
51
75.0000021
0
ARC
8
0
10
147.9398602
20
-83.1223926
40
2
50
240.2172736
51
246.0028556
0
ARC
8
0
10
161.3092022
20
-93.4524565
40
2
50
345.0000021
51
66.0028556
0
ARC
8
0
10
162.8473384
20
-103.1668676
40
2
50
165.0000021
51
270
0
ARC
8
0
10
185.282945
20
-103.1668676
40
2
50
270
51
14.9999979
0
ARC
8
0
10
186.8210812
20
-93.4524565
40
2
50
113.9971444
51
194.9999979
0
ARC
8
0
10
200.1904232
20
-83.1223926
40
2
50
293.9971444
51
299.7827264
0
ARC
8
0
10
218.021653
20
-77.5262339
40
2
50
104.9999979
51
119.7827264
0
ARC
8
0
10
236.8389548
20
-72.484153
40
2
50
90.2172718
51
104.9999979
0
ARC
8
0
10
254.8414557
20
-72.4158846
40
2
50
70.1363577
51
90.2172718
0
ARC
8
0
10
274.158632
20
-79.3947432
40
2
50
14.9999979
51
70.1363577
0
ARC
8
0
10
287.0881547
20
-127.6483784
40
2
50
284.9999979
51
14.9999979
0
ARC
8
0
10
270.9319277
20
-136.1185312
40
2
50
104.9999979
51
116.5372677
0
ARC
8
0
10
227.619149
20
-153.2776206
40
2
50
295.0000017
51
296.5372677
0
ARC
8
0
10
211.4728782
20
-165.2202619
40
2
50
115.0000017
51
131.6410263
0
ARC
8
0
10
197.0634291
20
-172.6795919
40
2
50
220.0000012
51
311.6410263
0
ARC
8
0
10
183.7086937
20
-162.9869333
40
2
50
40.0000012
51
90
0
ARC
8
0
10
164.4215897
20
-162.9869333
40
2
50
90
51
139.9999988
0
ARC
8
0
10
151.0668543
20
-172.6795919
40
2
50
228.3589737
51
319.9999988
0
ARC
8
0
10
136.6574052
20
-165.2202619
40
2
50
48.3589737
51
64.9999983
0
ARC
8
0
10
120.5111344
20
-153.2776206
40
2
50
243.4627323
51
244.9999983
0
ARC
8
0
10
77.1983557
20
-136.1185312
40
2
50
63.4627323
51
75.0000021
0
ARC
8
0
10
61.0421287
20
-127.6483784
40
2
50
165.0000021
51
255.0000021
0
ENDSEC
0
EOF