0
SECTION
2
HEADER
9
$INSUNITS
70
4
0
ENDSEC
0
SECTION
2
TABLES
0
TABLE
2
LTYPE
0
LTYPE
72
65
70
64
2
CONTINUOUS
3
______
73
0
40
0
0
ENDTAB
0
TABLE
2
LAYER
0
ENDTAB
0
ENDSEC
0
SECTION
2
ENTITIES
0
LINE
8
0
10
59.110277
20
-127.1307404
11
71.7924103
21
-79.800375
0
LINE
8
0
10
74.2419
20
-78.3861613
11
87.7648617
21
-82.0096279
0
LINE
8
0
10
90.2143513
20
-80.5954144
11
92.424666
21
-72.3464078
0
LINE
8
0
10
94.8741556
20
-70.9321943
11
108.3971174
21
-74.5556609
0
LINE
8
0
10
110.846607
20
-73.1414474
11
111.0407213
21
-72.4170029
0
LINE
8
0
10
113.4902109
20
-71.0027894
11
128.9450242
21
-75.1438941
0
LINE
8
0
10
130.3592378
20
-77.593384
11
130.1651235
21
-78.3178281
0
LINE
8
0
10
131.5793371
20
-80.767318
11
146.029765
21
-84.6392985
0
LINE
8
0
10
147.3908017
20
-85.885161
11
147.8717163
21
-87.2022111
0
LINE
8
0
10
149.232753
20
-88.4480736
11
161.7513291
21
-91.802416
0
LINE
8
0
10
163.1655428
20
-94.2519057
11
160.4237305
21
-104.4844887
0
LINE
8
0
10
162.3555822
20
-107.0021267
11
185.7747012
21
-107.0021267
0
LINE
8
0
10
187.7065529
20
-104.4844887
11
184.9647406
21
-94.2519057
0
LINE
8
0
10
186.3789543
20
-91.802416
11
198.8975304
21
-88.4480736
0
LINE
8
0
10
200.2585671
20
-87.2022111
11
200.7394817
21
-85.885161
0
LINE
8
0
10
202.1005184
20
-84.6392985
11
216.5509463
21
-80.767318
0
LINE
8
0
10
217.9651599
20
-78.3178281
11
217.7710456
21
-77.593384
0
LINE
8
0
10
219.1852592
20
-75.1438941
11
234.6400725
21
-71.0027894
0
LINE
8
0
10
237.0895621
20
-72.4170029
11
237.2836764
21
-73.1414474
0
LINE
8
0
10
239.733166
20
-74.5556609
11
253.2561278
21
-70.9321943
0
LINE
8
0
10
255.7056174
20
-72.3464078
11
257.9159321
21
-80.5954144
0
LINE
8
0
10
260.3654217
20
-82.0096279
11
273.8883834
21
-78.3861613
0
LINE
8
0
10
276.3378731
20
-79.800375
11
289.0200064
21
-127.1307404
0
LINE
8
0
10
287.6057927
20
-129.5802301
11
271.0697896
21
-134.0110388
0
LINE
8
0
10
269.4766358
20
-133.7653857
11
260.9721351
21
-128.3409208
0
LINE
8
0
10
259.3789813
20
-128.0952677
11
227.2147225
21
-136.7136548
0
LINE
8
0
10
225.7604743
20
-138.9796689
11
228.2340555
21
-153.5762282
0
LINE
8
0
10
227.1074058
20
-155.7230062
11
210.6276417
21
-163.4076464
0
LINE
8
0
10
210.1439552
20
-163.725617
11
198.3923521
21
-174.1742368
0
LINE
8
0
10
195.5313402
20
-173.9651671
11
185.2407825
21
-161.7013581
0
LINE
8
0
10
183.7086937
20
-160.9869333
11
164.4215897
21
-160.9869333
0
LINE
8
0
10
162.8895009
20
-161.7013581
11
152.5989432
21
-173.9651671
0
LINE
8
0
10
149.7379313
20
-174.1742368
11
137.9863282
21
-163.725617
0
LINE
8
0
10
137.5026417
20
-163.4076464
11
121.0228776
21
-155.7230062
0
LINE
8
0
10
119.8962279
20
-153.5762282
11
122.3698091
21
-138.9796689
0
LINE
8
0
10
120.9155609
20
-136.7136548
11
88.7513021
21
-128.0952677
0
LINE
8
0
10
87.1581483
20
-128.3409208
11
78.6536476
21
-133.7653857
0
LINE
8
0
10
77.0604938
20
-134.0110388
11
60.5244907
21
-129.5802301
0
ARC
8
0
10
73.724262
20
-80.318013
40
2
50
75.0000021
51
165.0000021
0
ARC
8
0
10
88.2824997
20
-80.0777762
40
2
50
255.0000021
51
344.9999966
0
ARC
8
0
10
94.3565176
20
-72.864046
40
2
50
75.0000021
51
164.9999966
0
ARC
8
0
10
108.9147554
20
-72.6238092
40
2
50
255.0000021
51
344.9999966
0
ARC
8
0
10
112.9725729
20
-72.9346411
40
2
50
75.0000021
51
164.9999966
0
ARC
8
0
10
128.4273862
20
-77.0757458
40
2
50
344.9999966
51
75.0000021
0
ARC
8
0
10
132.0969751
20
-78.8354663
40
2
50
164.9999966
51
255.0000021
0
ARC
8
0
10
145.512127
20
-86.5711502
40
2
50
20.0594262
51
75.0000021
0
ARC
8
0
10
149.750391
20
-86.5162219
40
2
50
200.0594262
51
255.0000021
0
ARC
8
0
10
161.2336911
20
-93.7342677
40
2
50
345.0000021
51
75.0000021
0
ARC
8
0
10
162.3555822
20
-105.0021267
40
2
50
165.0000021
51
270
0
ARC
8
0
10
185.7747012
20
-105.0021267
40
2
50
270
51
14.9999979
0
ARC
8
0
10
186.8965923
20
-93.7342677
40
2
50
104.9999979
51
194.9999979
0
ARC
8
0
10
198.3798924
20
-86.5162219
40
2
50
284.9999979
51
339.9405738
0
ARC
8
0
10
202.6181564
20
-86.5711502
40
2
50
104.9999979
51
159.9405738
0
ARC
8
0
10
216.0333083
20
-78.8354663
40
2
50
284.9999979
51
15.0000034
0
ARC
8
0
10
219.7028972
20
-77.0757458
40
2
50
104.9999979
51
195.0000034
0
ARC
8
0
10
235.1577105
20
-72.9346411
40
2
50
15.0000034
51
104.9999979
0
ARC
8
0
10
239.215528
20
-72.6238092
40
2
50
195.0000034
51
284.9999979
0
ARC
8
0
10
253.7737658
20
-72.864046
40
2
50
15.0000034
51
104.9999979
0
ARC
8
0
10
259.8477837
20
-80.0777762
40
2
50
195.0000034
51
284.9999979
0
ARC
8
0
10
274.4060214
20
-80.318013
40
2
50
14.9999979
51
104.9999979
0
ARC
8
0
10
287.0881547
20
-127.6483784
40
2
50
284.9999979
51
14.9999979
0
ARC
8
0
10
270.5521516
20
-132.0791871
40
2
50
237.4688604
51
284.9999979
0
ARC
8
0
10
259.8966193
20
-130.0271194
40
2
50
57.4688604
51
104.9999979
0
ARC
8
0
10
227.7323606
20
-138.6455065
40
2
50
104.9999979
51
189.6181574
0
ARC
8
0
10
226.2621692
20
-153.9103907
40
2
50
295.0000017
51
9.6181574
0
ARC
8
0
10
211.4728782
20
-165.2202619
40
2
50
115.0000017
51
131.6410263
0
ARC
8
0
10
197.0634291
20
-172.6795919
40
2
50
220.0000012
51
311.6410263
0
ARC
8
0
10
183.7086937
20
-162.9869333
40
2
50
40.0000012
51
90
0
ARC
8
0
10
164.4215897
20
-162.9869333
40
2
50
90
51
139.9999988
0
ARC
8
0
10
151.0668543
20
-172.6795919
40
2
50
228.3589737
51
319.9999988
0
ARC
8
0
10
136.6574052
20
-165.2202619
40
2
50
48.3589737
51
64.9999983
0
ARC
8
0
10
121.8681142
20
-153.9103907
40
2
50
170.3818426
51
244.9999983
0
ARC
8
0
10
120.3979228
20
-138.6455065
40
2
50
350.3818426
51
75.0000021
0
ARC
8
0
10
88.2336641
20
-130.0271194
40
2
50
75.0000021
51
122.5311396
0
ARC
8
0
10
77.5781318
20
-132.0791871
40
2
50
255.0000021
51
302.5311396
0
ARC
8
0
10
61.0421287
20
-127.6483784
40
2
50
165.0000021
51
255.0000021
0
ENDSEC
0
EOF