0
SECTION
2
HEADER
9
$INSUNITS
70
4
0
ENDSEC
0
SECTION
2
TABLES
0
TABLE
2
LTYPE
0
LTYPE
72
65
70
64
2
CONTINUOUS
3
______
73
0
40
0
0
ENDTAB
0
TABLE
2
LAYER
0
ENDTAB
0
ENDSEC
0
SECTION
2
ENTITIES
0
LINE
8
0
10
60.12357
20
-128.1787085
11
77.027272
21
-132.7080418
0
LINE
8
0
10
77.027272
20
-132.7080418
11
81.2977862
21
-116.7702657
0
LINE
8
0
10
81.2977862
20
-116.7702657
11
64.3940842
21
-112.2409324
0
LINE
8
0
10
64.3940842
20
-112.2409324
11
60.12357
21
-128.1787085
0
LINE
8
0
10
64.5234938
20
-111.7579695
11
81.4271958
21
-116.2873028
0
LINE
8
0
10
81.4271958
20
-116.2873028
11
85.69771
21
-100.3495267
0
LINE
8
0
10
85.69771
20
-100.3495267
11
68.794008
21
-95.8201934
0
LINE
8
0
10
68.794008
20
-95.8201934
11
64.5234938
21
-111.7579695
0
LINE
8
0
10
68.9234176
20
-95.3372304
11
85.8271196
21
-99.8665637
0
LINE
8
0
10
85.8271196
20
-99.8665637
11
90.0976338
21
-83.9287876
0
LINE
8
0
10
90.0976338
20
-83.9287876
11
73.1939318
21
-79.3994543
0
LINE
8
0
10
73.1939318
20
-79.3994543
11
68.9234176
21
-95.3372304
0
LINE
8
0
10
80.7558257
20
-120.7247415
11
97.6595277
21
-125.2540748
0
LINE
8
0
10
97.6595277
20
-125.2540748
11
101.9300419
21
-109.3162987
0
LINE
8
0
10
101.9300419
20
-109.3162987
11
85.0263399
21
-104.7869654
0
LINE
8
0
10
85.0263399
20
-104.7869654
11
80.7558257
21
-120.7247415
0
LINE
8
0
10
85.1557495
20
-104.3040024
11
102.0594515
21
-108.8333357
0
LINE
8
0
10
102.0594515
20
-108.8333357
11
106.3299657
21
-92.8955596
0
LINE
8
0
10
106.3299657
20
-92.8955596
11
89.4262637
21
-88.3662263
0
LINE
8
0
10
89.4262637
20
-88.3662263
11
85.1557495
21
-104.3040024
0
LINE
8
0
10
89.5556733
20
-87.8832634
11
106.4593753
21
-92.4125967
0
LINE
8
0
10
106.4593753
20
-92.4125967
11
110.7298895
21
-76.4748206
0
LINE
8
0
10
110.7298895
20
-76.4748206
11
93.8261875
21
-71.9454873
0
LINE
8
0
10
93.8261875
20
-71.9454873
11
89.5556733
21
-87.8832634
0
LINE
8
0
10
99.3718811
20
-120.7953366
11
116.2755831
21
-125.3246699
0
LINE
8
0
10
116.2755831
20
-125.3246699
11
120.5460973
21
-109.3868938
0
LINE
8
0
10
120.5460973
20
-109.3868938
11
103.6423953
21
-104.8575605
0
LINE
8
0
10
103.6423953
20
-104.8575605
11
99.3718811
21
-120.7953366
0
LINE
8
0
10
103.7718048
20
-104.3745976
11
120.6755068
21
-108.9039309
0
LINE
8
0
10
120.6755068
20
-108.9039309
11
124.946021
21
-92.9661548
0
LINE
8
0
10
124.946021
20
-92.9661548
11
108.042319
21
-88.4368215
0
LINE
8
0
10
108.042319
20
-88.4368215
11
103.7718048
21
-104.3745976
0
LINE
8
0
10
108.1717286
20
-87.9538585
11
125.0754306
21
-92.4831918
0
LINE
8
0
10
125.0754306
20
-92.4831918
11
129.3459448
21
-76.5454157
0
LINE
8
0
10
129.3459448
20
-76.5454157
11
112.4422428
21
-72.0160824
0
LINE
8
0
10
112.4422428
20
-72.0160824
11
108.1717286
21
-87.9538585
0
LINE
8
0
10
115.5291555
20
-130.0422271
11
132.4328575
21
-134.5715604
0
LINE
8
0
10
132.4328575
20
-134.5715604
11
136.7033717
21
-118.6337843
0
LINE
8
0
10
136.7033717
20
-118.6337843
11
119.7996697
21
-114.104451
0
LINE
8
0
10
119.7996697
20
-114.104451
11
115.5291555
21
-130.0422271
0
LINE
8
0
10
119.9290792
20
-113.6214881
11
136.8327812
21
-118.1508214
0
LINE
8
0
10
136.8327812
20
-118.1508214
11
141.1032954
21
-102.2130453
0
LINE
8
0
10
141.1032954
20
-102.2130453
11
124.1995934
21
-97.683712
0
LINE
8
0
10
124.1995934
20
-97.683712
11
119.9290792
21
-113.6214881
0
LINE
8
0
10
124.329003
20
-97.200749
11
141.232705
21
-101.7300823
0
LINE
8
0
10
141.232705
20
-101.7300823
11
145.5032192
21
-85.7923062
0
LINE
8
0
10
145.5032192
20
-85.7923062
11
128.5995172
21
-81.2629729
0
LINE
8
0
10
128.5995172
20
-81.2629729
11
124.329003
21
-97.200749
0
LINE
8
0
10
132.1781861
20
-137.4538585
11
149.0818881
21
-141.9831918
0
LINE
8
0
10
149.0818881
20
-141.9831918
11
153.3524023
21
-126.0454157
0
LINE
8
0
10
153.3524023
20
-126.0454157
11
136.4487003
21
-121.5160824
0
LINE
8
0
10
136.4487003
20
-121.5160824
11
132.1781861
21
-137.4538585
0
LINE
8
0
10
136.5781098
20
-121.0331195
11
153.4818118
21
-125.5624528
0
LINE
8
0
10
153.4818118
20
-125.5624528
11
157.752326
21
-109.6246767
0
LINE
8
0
10
157.752326
20
-109.6246767
11
140.848624
21
-105.0953434
0
LINE
8
0
10
140.848624
20
-105.0953434
11
136.5781098
21
-121.0331195
0
LINE
8
0
10
140.9780336
20
-104.6123804
11
157.8817356
21
-109.1417137
0
LINE
8
0
10
157.8817356
20
-109.1417137
11
162.1522498
21
-93.2039376
0
LINE
8
0
10
162.1522498
20
-93.2039376
11
145.2485478
21
-88.6746043
0
LINE
8
0
10
145.2485478
20
-88.6746043
11
140.9780336
21
-104.6123804
0
LINE
8
0
10
121.3027383
20
-154.474285
11
137.1631246
21
-161.8701045
0
LINE
8
0
10
137.1631246
20
-161.8701045
11
144.1363259
21
-146.916026
0
LINE
8
0
10
144.1363259
20
-146.916026
11
128.2759396
21
-139.5202065
0
LINE
8
0
10
128.2759396
20
-139.5202065
11
121.3027383
21
-154.474285
0
LINE
8
0
10
137.716161
20
-162.5319545
11
151.1219388
21
-173.7807376
0
LINE
8
0
10
151.1219388
20
-173.7807376
11
161.7279344
21
-161.1410043
0
LINE
8
0
10
161.7279344
20
-161.1410043
11
148.3221566
21
-149.8922212
0
LINE
8
0
10
148.3221566
20
-149.8922212
11
137.716161
21
-162.5319545
0
LINE
8
0
10
271.1030114
20
-132.7080418
11
288.0067134
21
-128.1787085
0
LINE
8
0
10
288.0067134
20
-128.1787085
11
283.7361992
21
-112.2409324
0
LINE
8
0
10
283.7361992
20
-112.2409324
11
266.8324972
21
-116.7702657
0
LINE
8
0
10
266.8324972
20
-116.7702657
11
271.1030114
21
-132.7080418
0
LINE
8
0
10
266.7030876
20
-116.2873028
11
283.6067896
21
-111.7579695
0
LINE
8
0
10
283.6067896
20
-111.7579695
11
279.3362754
21
-95.8201934
0
LINE
8
0
10
279.3362754
20
-95.8201934
11
262.4325734
21
-100.3495267
0
LINE
8
0
10
262.4325734
20
-100.3495267
11
266.7030876
21
-116.2873028
0
LINE
8
0
10
262.3031638
20
-99.8665637
11
279.2068658
21
-95.3372304
0
LINE
8
0
10
279.2068658
20
-95.3372304
11
274.9363516
21
-79.3994543
0
LINE
8
0
10
274.9363516
20
-79.3994543
11
258.0326496
21
-83.9287876
0
LINE
8
0
10
258.0326496
20
-83.9287876
11
262.3031638
21
-99.8665637
0
LINE
8
0
10
250.4707557
20
-125.2540748
11
267.3744577
21
-120.7247415
0
LINE
8
0
10
267.3744577
20
-120.7247415
11
263.1039435
21
-104.7869654
0
LINE
8
0
10
263.1039435
20
-104.7869654
11
246.2002415
21
-109.3162987
0
LINE
8
0
10
246.2002415
20
-109.3162987
11
250.4707557
21
-125.2540748
0
LINE
8
0
10
246.0708319
20
-108.8333357
11
262.9745339
21
-104.3040024
0
LINE
8
0
10
262.9745339
20
-104.3040024
11
258.7040197
21
-88.3662263
0
LINE
8
0
10
258.7040197
20
-88.3662263
11
241.8003177
21
-92.8955596
0
LINE
8
0
10
241.8003177
20
-92.8955596
11
246.0708319
21
-108.8333357
0
LINE
8
0
10
241.6709081
20
-92.4125967
11
258.5746101
21
-87.8832634
0
LINE
8
0
10
258.5746101
20
-87.8832634
11
254.3040959
21
-71.9454873
0
LINE
8
0
10
254.3040959
20
-71.9454873
11
237.4003939
21
-76.4748206
0
LINE
8
0
10
237.4003939
20
-76.4748206
11
241.6709081
21
-92.4125967
0
LINE
8
0
10
231.8547003
20
-125.3246699
11
248.7584023
21
-120.7953366
0
LINE
8
0
10
248.7584023
20
-120.7953366
11
244.4878881
21
-104.8575605
0
LINE
8
0
10
244.4878881
20
-104.8575605
11
227.5841861
21
-109.3868938
0
LINE
8
0
10
227.5841861
20
-109.3868938
11
231.8547003
21
-125.3246699
0
LINE
8
0
10
227.4547766
20
-108.9039309
11
244.3584786
21
-104.3745976
0
LINE
8
0
10
244.3584786
20
-104.3745976
11
240.0879644
21
-88.4368215
0
LINE
8
0
10
240.0879644
20
-88.4368215
11
223.1842624
21
-92.9661548
0
LINE
8
0
10
223.1842624
20
-92.9661548
11
227.4547766
21
-108.9039309
0
LINE
8
0
10
223.0548528
20
-92.4831918
11
239.9585548
21
-87.9538585
0
LINE
8
0
10
239.9585548
20
-87.9538585
11
235.6880406
21
-72.0160824
0
LINE
8
0
10
235.6880406
20
-72.0160824
11
218.7843386
21
-76.5454157
0
LINE
8
0
10
218.7843386
20
-76.5454157
11
223.0548528
21
-92.4831918
0
LINE
8
0
10
215.6974259
20
-134.5715604
11
232.6011279
21
-130.0422271
0
LINE
8
0
10
232.6011279
20
-130.0422271
11
228.3306137
21
-114.104451
0
LINE
8
0
10
228.3306137
20
-114.104451
11
211.4269117
21
-118.6337843
0
LINE
8
0
10
211.4269117
20
-118.6337843
11
215.6974259
21
-134.5715604
0
LINE
8
0
10
211.2975022
20
-118.1508214
11
228.2012042
21
-113.6214881
0
LINE
8
0
10
228.2012042
20
-113.6214881
11
223.93069
21
-97.683712
0
LINE
8
0
10
223.93069
20
-97.683712
11
207.026988
21
-102.2130453
0
LINE
8
0
10
207.026988
20
-102.2130453
11
211.2975022
21
-118.1508214
0
LINE
8
0
10
206.8975784
20
-101.7300823
11
223.8012804
21
-97.200749
0
LINE
8
0
10
223.8012804
20
-97.200749
11
219.5307662
21
-81.2629729
0
LINE
8
0
10
219.5307662
20
-81.2629729
11
202.6270642
21
-85.7923062
0
LINE
8
0
10
202.6270642
20
-85.7923062
11
206.8975784
21
-101.7300823
0
LINE
8
0
10
199.0483953
20
-141.9831918
11
215.9520973
21
-137.4538585
0
LINE
8
0
10
215.9520973
20
-137.4538585
11
211.6815831
21
-121.5160824
0
LINE
8
0
10
211.6815831
20
-121.5160824
11
194.7778811
21
-126.0454157
0
LINE
8
0
10
194.7778811
20
-126.0454157
11
199.0483953
21
-141.9831918
0
LINE
8
0
10
194.6484716
20
-125.5624528
11
211.5521736
21
-121.0331195
0
LINE
8
0
10
211.5521736
20
-121.0331195
11
207.2816594
21
-105.0953434
0
LINE
8
0
10
207.2816594
20
-105.0953434
11
190.3779574
21
-109.6246767
0
LINE
8
0
10
190.3779574
20
-109.6246767
11
194.6484716
21
-125.5624528
0
LINE
8
0
10
190.2485478
20
-109.1417137
11
207.1522498
21
-104.6123804
0
LINE
8
0
10
207.1522498
20
-104.6123804
11
202.8817356
21
-88.6746043
0
LINE
8
0
10
202.8817356
20
-88.6746043
11
185.9780336
21
-93.2039376
0
LINE
8
0
10
185.9780336
20
-93.2039376
11
190.2485478
21
-109.1417137
0
LINE
8
0
10
210.9671588
20
-161.8701045
11
226.8275451
21
-154.474285
0
LINE
8
0
10
226.8275451
20
-154.474285
11
219.8543438
21
-139.5202065
0
LINE
8
0
10
219.8543438
20
-139.5202065
11
203.9939575
21
-146.916026
0
LINE
8
0
10
203.9939575
20
-146.916026
11
210.9671588
21
-161.8701045
0
LINE
8
0
10
197.0083446
20
-173.7807376
11
210.4141224
21
-162.5319545
0
LINE
8
0
10
210.4141224
20
-162.5319545
11
199.8081268
21
-149.8922212
0
LINE
8
0
10
199.8081268
20
-149.8922212
11
186.402349
21
-161.1410043
0
LINE
8
0
10
186.402349
20
-161.1410043
11
197.0083446
21
-173.7807376
0
ENDSEC
0
EOF