0
SECTION
2
HEADER
9
$INSUNITS
70
4
0
ENDSEC
0
SECTION
2
TABLES
0
TABLE
2
LTYPE
0
LTYPE
72
65
70
64
2
CONTINUOUS
3
______
73
0
40
0
0
ENDTAB
0
TABLE
2
LAYER
0
ENDTAB
0
ENDSEC
0
SECTION
2
ENTITIES
0
LINE
8
0
10
58.5926389
20
-129.062592
11
77.9111554
21
-134.2389729
0
LINE
8
0
10
77.9111554
20
-134.2389729
11
81.1567462
21
-122.1262631
0
LINE
8
0
10
58.5926389
20
-129.062592
11
72.3100484
21
-77.8685232
0
LINE
8
0
10
89.6967133
20
-82.527266
11
72.3100484
21
-77.8685232
0
LINE
8
0
10
81.1567462
20
-122.1262631
11
98.5434111
21
-126.7850059
0
LINE
8
0
10
98.5434111
20
-126.7850059
11
99.7728016
21
-122.1968582
0
LINE
8
0
10
110.3289689
20
-75.073299
11
92.9423041
21
-70.4145562
0
LINE
8
0
10
92.9423041
20
-70.4145562
11
89.6967133
21
-82.527266
0
LINE
8
0
10
99.7728016
20
-122.1968582
11
115.2276149
21
-126.3379629
0
LINE
8
0
10
129.6474854
20
-80.2496799
11
130.8768759
21
-75.6615322
0
LINE
8
0
10
130.8768759
20
-75.6615322
11
111.5583594
21
-70.4851513
0
LINE
8
0
10
111.5583594
20
-70.4851513
11
110.3289689
21
-75.073299
0
LINE
8
0
10
113.9982244
20
-130.9261106
11
131.3848893
21
-135.5848534
0
LINE
8
0
10
115.2276149
20
-126.3379629
11
113.9982244
21
-130.9261106
0
LINE
8
0
10
146.296516
20
-87.6613113
11
147.0341503
21
-84.9084227
0
LINE
8
0
10
147.0341503
20
-84.9084227
11
129.6474854
21
-80.2496799
0
LINE
8
0
10
130.647255
20
-138.337742
11
149.9657715
21
-143.5141229
0
LINE
8
0
10
149.9657715
20
-143.5141229
11
163.6831809
21
-92.3200541
0
LINE
8
0
10
131.3848893
20
-135.5848534
11
130.647255
21
-138.337742
0
LINE
8
0
10
163.6831809
20
-92.3200541
11
146.296516
21
-87.6613113
0
LINE
8
0
10
119.6415807
20
-155.0788969
11
135.955121
21
-162.6860255
0
LINE
8
0
10
140.9222021
20
-156.7664887
11
145.7974835
21
-146.3114141
0
LINE
8
0
10
145.7974835
20
-146.3114141
11
127.6713277
21
-137.8590489
0
LINE
8
0
10
127.6713277
20
-137.8590489
11
119.6415807
21
-155.0788969
0
LINE
8
0
10
135.955121
20
-162.6860255
11
151.2760098
21
-175.5417777
0
LINE
8
0
10
151.2760098
20
-175.5417777
11
163.4889744
21
-160.9869333
0
LINE
8
0
10
163.4889744
20
-160.9869333
11
148.1680856
21
-148.1311811
0
LINE
8
0
10
148.1680856
20
-148.1311811
11
140.9222021
21
-156.7664887
0
LINE
8
0
10
270.219128
20
-134.2389729
11
289.5376445
21
-129.062592
0
LINE
8
0
10
275.820235
20
-77.8685232
11
289.5376445
21
-129.062592
0
LINE
8
0
10
266.9735372
20
-122.1262631
11
270.219128
21
-134.2389729
0
LINE
8
0
10
275.820235
20
-77.8685232
11
258.4335701
21
-82.527266
0
LINE
8
0
10
249.5868723
20
-126.7850059
11
266.9735372
21
-122.1262631
0
LINE
8
0
10
248.3574818
20
-122.1968582
11
249.5868723
21
-126.7850059
0
LINE
8
0
10
258.4335701
20
-82.527266
11
255.1879793
21
-70.4145562
0
LINE
8
0
10
255.1879793
20
-70.4145562
11
237.8013145
21
-75.073299
0
LINE
8
0
10
232.9026685
20
-126.3379629
11
248.3574818
21
-122.1968582
0
LINE
8
0
10
237.8013145
20
-75.073299
11
236.571924
21
-70.4851513
0
LINE
8
0
10
236.571924
20
-70.4851513
11
217.2534075
21
-75.6615322
0
LINE
8
0
10
217.2534075
20
-75.6615322
11
218.482798
21
-80.2496799
0
LINE
8
0
10
216.7453941
20
-135.5848534
11
234.132059
21
-130.9261106
0
LINE
8
0
10
234.132059
20
-130.9261106
11
232.9026685
21
-126.3379629
0
LINE
8
0
10
218.482798
20
-80.2496799
11
201.0961331
21
-84.9084227
0
LINE
8
0
10
201.0961331
20
-84.9084227
11
201.8337674
21
-87.6613113
0
LINE
8
0
10
198.1645119
20
-143.5141229
11
217.4830284
21
-138.337742
0
LINE
8
0
10
217.4830284
20
-138.337742
11
216.7453941
21
-135.5848534
0
LINE
8
0
10
184.4471025
20
-92.3200541
11
198.1645119
21
-143.5141229
0
LINE
8
0
10
201.8337674
20
-87.6613113
11
184.4471025
21
-92.3200541
0
LINE
8
0
10
212.1751624
20
-162.6860255
11
228.4887027
21
-155.0788969
0
LINE
8
0
10
228.4887027
20
-155.0788969
11
220.4589557
21
-137.8590489
0
LINE
8
0
10
220.4589557
20
-137.8590489
11
202.3327999
21
-146.3114141
0
LINE
8
0
10
202.3327999
20
-146.3114141
11
207.2080813
21
-156.7664887
0
LINE
8
0
10
196.8542736
20
-175.5417777
11
212.1751624
21
-162.6860255
0
LINE
8
0
10
207.2080813
20
-156.7664887
11
199.9621978
21
-148.1311811
0
LINE
8
0
10
199.9621978
20
-148.1311811
11
184.641309
21
-160.9869333
0
LINE
8
0
10
184.641309
20
-160.9869333
11
196.8542736
21
-175.5417777
0
ENDSEC
0
EOF